<?xml version="1.0" encoding="UTF-8"?>
<svg xmlns="http://www.w3.org/2000/svg" xmlns:xlink="http://www.w3.org/1999/xlink" viewBox="0 0 144 144" width="144px" height="144px">
<g id="surface13288269">
<path style=" stroke:none;fill-rule:nonzero;fill:rgb(100%,100%,100%);fill-opacity:1;" d="M 16.5 27 C 14.878906 26.976562 13.367188 27.828125 12.550781 29.230469 C 11.730469 30.632812 11.730469 32.367188 12.550781 33.769531 C 13.367188 35.171875 14.878906 36.023438 16.5 36 L 127.5 36 C 129.121094 36.023438 130.632812 35.171875 131.449219 33.769531 C 132.269531 32.367188 132.269531 30.632812 131.449219 29.230469 C 130.632812 27.828125 129.121094 26.976562 127.5 27 Z M 16.5 67.5 C 14.878906 67.476562 13.367188 68.328125 12.550781 69.730469 C 11.730469 71.132812 11.730469 72.867188 12.550781 74.269531 C 13.367188 75.671875 14.878906 76.523438 16.5 76.5 L 127.5 76.5 C 129.121094 76.523438 130.632812 75.671875 131.449219 74.269531 C 132.269531 72.867188 132.269531 71.132812 131.449219 69.730469 C 130.632812 68.328125 129.121094 67.476562 127.5 67.5 Z M 16.5 108 C 14.878906 107.976562 13.367188 108.828125 12.550781 110.230469 C 11.730469 111.632812 11.730469 113.367188 12.550781 114.769531 C 13.367188 116.171875 14.878906 117.023438 16.5 117 L 127.5 117 C 129.121094 117.023438 130.632812 116.171875 131.449219 114.769531 C 132.269531 113.367188 132.269531 111.632812 131.449219 110.230469 C 130.632812 108.828125 129.121094 107.976562 127.5 108 Z M 16.5 108 "/>
</g>
</svg>
