<?xml version="1.0" encoding="UTF-8"?>
<svg xmlns="http://www.w3.org/2000/svg" xmlns:xlink="http://www.w3.org/1999/xlink" viewBox="0 0 144 144" width="144px" height="144px">
<g id="surface13789687">
<path style=" stroke:none;fill-rule:nonzero;fill:rgb(100%,100%,100%);fill-opacity:1;" d="M 34.5 18 C 25.441406 18 18 25.441406 18 34.5 L 18 109.5 C 18 118.558594 25.441406 126 34.5 126 L 109.5 126 C 118.558594 126 126 118.558594 126 109.5 L 126 34.5 C 126 25.441406 118.558594 18 109.5 18 Z M 34.5 27 L 109.5 27 C 113.695312 27 117 30.304688 117 34.5 L 117 109.5 C 117 113.695312 113.695312 117 109.5 117 L 90 117 L 90 87 L 100.875 87 C 102.386719 87 103.664062 85.867188 103.851562 84.367188 L 104.976562 75.367188 C 105.085938 74.515625 104.8125 73.660156 104.242188 73.011719 C 103.675781 72.367188 102.859375 72 102 72 L 90 72 L 90 61.5 C 90 58.191406 92.691406 55.5 96 55.5 L 102 55.5 C 103.65625 55.5 105 54.160156 105 52.5 L 105 42.375 C 105 40.820312 103.816406 39.523438 102.269531 39.386719 C 102.09375 39.371094 97.859375 39 92.5 39 C 79.28125 39 72 46.847656 72 61.101562 L 72 72 L 60 72 C 58.34375 72 57 73.339844 57 75 L 57 84 C 57 85.660156 58.34375 87 60 87 L 72 87 L 72 117 L 34.5 117 C 30.304688 117 27 113.695312 27 109.5 L 27 34.5 C 27 30.304688 30.304688 27 34.5 27 Z M 34.5 27 "/>
</g>
</svg>
