<?xml version="1.0" encoding="UTF-8"?>
<svg xmlns="http://www.w3.org/2000/svg" xmlns:xlink="http://www.w3.org/1999/xlink" viewBox="0 0 96 96" width="96px" height="96px">
<g id="surface13820391">
<path style=" stroke:none;fill-rule:nonzero;fill:rgb(100%,100%,100%);fill-opacity:1;" d="M 14.929688 18.070312 C 9.984375 18.070312 5.929688 22.125 5.929688 27.070312 L 5.929688 69.070312 C 5.929688 74.015625 9.984375 78.070312 14.929688 78.070312 L 80.929688 78.070312 C 85.851562 78.070312 89.929688 74.015625 89.929688 69.070312 L 89.929688 27.070312 C 89.929688 22.125 85.875 18.070312 80.929688 18.070312 Z M 14.929688 24.070312 L 80.929688 24.070312 C 82.617188 24.070312 83.929688 25.382812 83.929688 27.070312 L 83.929688 69.070312 C 83.929688 70.757812 82.617188 72.070312 80.929688 72.070312 L 14.929688 72.070312 C 13.242188 72.070312 11.929688 70.757812 11.929688 69.070312 L 11.929688 27.070312 C 11.929688 25.382812 13.242188 24.070312 14.929688 24.070312 Z M 36 29.953125 L 36 66.070312 L 66 48 Z M 42 40.546875 L 54.375 48 L 42 55.453125 Z M 42 40.546875 "/>
</g>
</svg>
